<?xml version="1.0" encoding="utf-8"?>
<!-- Generator: Adobe Illustrator 15.0.0, SVG Export Plug-In . SVG Version: 6.00 Build 0)  -->
<!DOCTYPE svg PUBLIC "-//W3C//DTD SVG 1.1//EN" "http://www.w3.org/Graphics/SVG/1.1/DTD/svg11.dtd">
<svg version="1.1" id="Layer_1" xmlns="http://www.w3.org/2000/svg" xmlns:xlink="http://www.w3.org/1999/xlink" x="0px" y="0px"
	 width="653.125px" height="548.438px" viewBox="0 0 653.125 548.438" enable-background="new 0 0 653.125 548.438"
	 xml:space="preserve">
<path fill="#030104" d="M294.125,187.05c4.208,0,7.65-3.442,7.65-7.65v-15.3c0-4.208-3.442-7.65-7.65-7.65h-229.5
	c-4.208,0-7.65,3.442-7.65,7.65v15.3c0,4.208,3.442,7.65,7.65,7.65H294.125z M630.725,370.65h-22.949V267.279
	c0-16.064-6.503-31.843-17.978-43.223l-80.229-80.229c-11.284-11.475-27.062-17.978-43.223-17.978h-42.171V78.611
	c0-24.576-21.229-44.562-47.238-44.562H134.814c-26.01,0-47.239,19.986-47.239,44.562V95.25h-53.55c-4.208,0-7.65,3.442-7.65,7.65
	v15.3c0,4.208,3.442,7.65,7.65,7.65h229.5c4.208,0,7.65-3.442,7.65-7.65v-15.3c0-4.208-3.442-7.65-7.65-7.65h-145.35V78.611
	c0-7.746,7.459-13.961,16.639-13.961h242.123c9.18,0,16.639,6.216,16.639,13.961V370.65H224.893
	c-13.961-18.456-35.955-30.601-60.817-30.601c-17.308,0-33.086,5.929-45.9,15.683V278.85h-30.6v137.7
	c0,42.267,34.233,76.5,76.5,76.5c42.266,0,76.5-34.233,76.5-76.5c0-5.259-0.574-10.327-1.53-15.3h186.66
	c-1.052,4.973-1.53,10.041-1.53,15.3c0,42.267,34.234,76.5,76.5,76.5c42.267,0,76.5-34.233,76.5-76.5
	c0-5.259-0.573-10.327-1.53-15.3h55.08c4.208,0,7.65-3.442,7.65-7.65v-15.3C638.375,374.093,634.933,370.65,630.725,370.65z
	 M164.075,462.45c-25.341,0-45.9-20.56-45.9-45.9s20.56-45.899,45.9-45.899c25.34,0,45.9,20.559,45.9,45.899
	S189.416,462.45,164.075,462.45z M424.175,156.45h42.171c8.032,0,15.97,3.251,21.611,8.989l80.229,80.229
	c0.765,0.765,1.052,1.817,1.721,2.678H424.175V156.45z M500.675,462.45c-25.341,0-45.899-20.56-45.899-45.9
	s20.559-45.899,45.899-45.899s45.9,20.559,45.9,45.899S526.016,462.45,500.675,462.45z M577.175,370.65h-15.683
	c-13.961-18.456-35.955-30.601-60.817-30.601s-46.856,12.145-60.817,30.601h-15.683V278.85h153V370.65z M271.175,240.6v-15.3
	c0-4.207-3.442-7.65-7.65-7.65h-229.5c-4.208,0-7.65,3.443-7.65,7.65v15.3c0,4.208,3.442,7.65,7.65,7.65h229.5
	C267.732,248.25,271.175,244.808,271.175,240.6z"/>
</svg>
